<svg width="25" height="22" viewBox="0 0 25 22" fill="none" xmlns="http://www.w3.org/2000/svg">
<path d="M13 6.35156H14.75V11.2734L18.8516 13.7344L17.9766 15.1562L13 12.1484V6.35156ZM6.71094 3.5625C8.78906 1.52083 11.2682 0.5 14.1484 0.5C17.0286 0.5 19.4896 1.52083 21.5312 3.5625C23.6094 5.60417 24.6484 8.08333 24.6484 11C24.6484 13.9167 23.6094 16.3958 21.5312 18.4375C19.4896 20.4792 17.0286 21.5 14.1484 21.5C12.9453 21.5 11.6146 21.2083 10.1562 20.625C8.73438 20.0052 7.60417 19.276 6.76562 18.4375L8.40625 16.7422C10.0104 18.3464 11.9245 19.1484 14.1484 19.1484C16.4089 19.1484 18.3411 18.3646 19.9453 16.7969C21.5495 15.1927 22.3516 13.2604 22.3516 11C22.3516 8.73958 21.5495 6.82552 19.9453 5.25781C18.3411 3.65365 16.4089 2.85156 14.1484 2.85156C11.888 2.85156 9.95573 3.65365 8.35156 5.25781C6.78385 6.82552 6 8.73958 6 11H9.5L4.79688 15.7031L4.6875 15.5391L0.148438 11H3.64844C3.64844 8.08333 4.66927 5.60417 6.71094 3.5625Z" fill="#535EE6"/>
</svg>
