<svg width="21" height="20" viewBox="0 0 21 20" fill="none" xmlns="http://www.w3.org/2000/svg">
<path d="M13.911 12.3929H13.1141L12.8329 12.1117C14.0048 10.7054 14.661 8.78357 14.286 6.76794C13.8173 4.00232 11.5204 1.75232 8.70789 1.42419C4.48914 0.908569 0.926636 4.47107 1.44226 8.68982C1.77039 11.5023 4.02039 13.7992 6.78601 14.2679C8.80164 14.6429 10.7235 13.9867 12.1298 12.8148L12.411 13.0961V13.8929L16.6298 18.1117C17.0516 18.5336 17.7079 18.5336 18.1298 18.1117C18.5516 17.7367 18.5516 17.0336 18.1298 16.6586L13.911 12.3929ZM7.91101 12.3929C5.42664 12.3929 3.41101 10.3773 3.41101 7.89294C3.41101 5.40857 5.42664 3.39294 7.91101 3.39294C10.3954 3.39294 12.411 5.40857 12.411 7.89294C12.411 10.3773 10.3954 12.3929 7.91101 12.3929Z" fill="#7E8086"/>
</svg>
